<svg width="23" height="22" viewBox="0 0 23 22" fill="none" xmlns="http://www.w3.org/2000/svg">
<path fill-rule="evenodd" clip-rule="evenodd" d="M6.5 18.7H0V9.9H6.5V18.7ZM22.9732 10.2263C22.9024 9.61869 22.4234 8.20119 20.8219 8.26719C19.7114 8.31302 17.6043 8.679 16.417 8.04925C17.2363 4.69792 17.0391 0 14.8905 0C13.449 0 13.1759 1.65642 12.7428 3.17992C11.6386 7.06842 9.74772 8.6955 7.6 9.49117V19.4627C11.5627 20.1053 13.3378 22 17.0997 22C19.9917 22 21.1954 20.347 21.5282 19.6736C21.8611 19.0001 21.9898 18.4719 22.2079 17.4931C22.5842 15.8045 22.9481 12.8006 22.9732 12.2243C22.9905 11.8259 23.0041 11.3461 22.9989 10.9641C22.9948 10.6657 22.9989 10.4472 22.9732 10.2263Z" fill="#F5F4FF"/>
</svg>
