<svg width="22" height="22" viewBox="0 0 22 22" fill="none" xmlns="http://www.w3.org/2000/svg">
<path fill-rule="evenodd" clip-rule="evenodd" d="M11 22C17.0751 22 22 17.0751 22 11C22 4.92487 17.0751 0 11 0C4.92487 0 0 4.92487 0 11C0 17.0751 4.92487 22 11 22ZM4 15.22H7.3V9.94H4V15.22ZM16.2045 8.96031C17.2002 8.92071 17.498 9.77121 17.542 10.1358C17.5548 10.2418 17.5557 10.347 17.5569 10.4765C17.5572 10.5088 17.5575 10.5427 17.558 10.5784C17.5612 10.8077 17.5528 11.0955 17.542 11.3346C17.5264 11.6804 17.3002 13.4827 17.0662 14.4959C16.9306 15.0831 16.8506 15.4001 16.6436 15.8041C16.4367 16.2082 15.6883 17.2 13.8903 17.2C12.5841 17.2 11.6632 16.8455 10.6755 16.4652C9.89449 16.1646 9.07179 15.8478 7.98391 15.6776V9.6947C9.31923 9.2173 10.4949 8.24105 11.1814 5.90795C11.2105 5.80909 11.2385 5.70929 11.2663 5.60992C11.4959 4.7905 11.7174 4 12.5167 4C13.8526 4 13.9751 6.81875 13.4658 8.82955C14.0531 9.13018 15.0024 9.05261 15.7137 8.9945C15.8964 8.97958 16.0634 8.96593 16.2045 8.96031Z" fill="url(#paint0_linear_205_50)"/>
<defs>
<linearGradient id="paint0_linear_205_50" x1="21.5767" y1="0.21165" x2="0" y2="0.21165" gradientUnits="userSpaceOnUse">
<stop stop-color="#F5F4FF"/>
<stop offset="1" stop-color="#D2E7FF"/>
</linearGradient>
</defs>
</svg>
