<svg width="23" height="22" viewBox="0 0 23 22" fill="none" xmlns="http://www.w3.org/2000/svg">
<path fill-rule="evenodd" clip-rule="evenodd" d="M2.875 0H20.125C21.7107 0 23 1.23313 23 2.74984V15.1241C23 16.6408 21.7107 17.874 20.125 17.874H13.6562L8.04551 21.8999C7.69062 22.1491 7.1875 21.9042 7.1875 21.4831V17.874H2.875C1.28926 17.874 0 16.6408 0 15.1241V2.74984C0 1.23313 1.28926 0 2.875 0ZM4.23684 12.2222C5.23968 12.2222 6.05263 11.4014 6.05263 10.3889C6.05263 9.37637 5.23968 8.55556 4.23684 8.55556C3.23401 8.55556 2.42105 9.37637 2.42105 10.3889C2.42105 11.4014 3.23401 12.2222 4.23684 12.2222ZM13.3158 10.3889C13.3158 11.4014 12.5028 12.2222 11.5 12.2222C10.4972 12.2222 9.68421 11.4014 9.68421 10.3889C9.68421 9.37637 10.4972 8.55556 11.5 8.55556C12.5028 8.55556 13.3158 9.37637 13.3158 10.3889ZM18.7632 12.2222C19.766 12.2222 20.5789 11.4014 20.5789 10.3889C20.5789 9.37637 19.766 8.55556 18.7632 8.55556C17.7603 8.55556 16.9474 9.37637 16.9474 10.3889C16.9474 11.4014 17.7603 12.2222 18.7632 12.2222Z" fill="#F5F4FF"/>
</svg>
