<svg width="22" height="22" viewBox="0 0 22 22" fill="none" xmlns="http://www.w3.org/2000/svg">
<path fill-rule="evenodd" clip-rule="evenodd" d="M11 22C17.0751 22 22 17.0751 22 11C22 4.92487 17.0751 0 11 0C4.92487 0 0 4.92487 0 11C0 17.0751 4.92487 22 11 22ZM17.6 6.0499C17.6 5.13988 16.8601 4.4 15.95 4.4H6.05C5.13992 4.4 4.4 5.13988 4.4 6.0499V13.4745C4.4 14.3845 5.13992 15.1244 6.05 15.1244H8.525V17.2899C8.525 17.5425 8.81375 17.6895 9.01742 17.5399L12.2375 15.1244H15.95C16.8601 15.1244 17.6 14.3845 17.6 13.4745V6.0499ZM8.8 11C8.8 10.3925 8.30751 9.9 7.7 9.9C7.09249 9.9 6.6 10.3925 6.6 11C6.6 11.6075 7.09249 12.1 7.7 12.1C8.30751 12.1 8.8 11.6075 8.8 11ZM11 9.9C11.6075 9.9 12.1 10.3925 12.1 11C12.1 11.6075 11.6075 12.1 11 12.1C10.3925 12.1 9.9 11.6075 9.9 11C9.9 10.3925 10.3925 9.9 11 9.9ZM15.4 11C15.4 10.3925 14.9075 9.9 14.3 9.9C13.6925 9.9 13.2 10.3925 13.2 11C13.2 11.6075 13.6925 12.1 14.3 12.1C14.9075 12.1 15.4 11.6075 15.4 11Z" fill="url(#paint0_linear_205_141)"/>
<defs>
<linearGradient id="paint0_linear_205_141" x1="21.5767" y1="0.21165" x2="0" y2="0.21165" gradientUnits="userSpaceOnUse">
<stop stop-color="#F5F4FF"/>
<stop offset="1" stop-color="#D2E7FF"/>
</linearGradient>
</defs>
</svg>
