<svg width="22" height="22" viewBox="0 0 22 22" fill="none" xmlns="http://www.w3.org/2000/svg">
<path fill-rule="evenodd" clip-rule="evenodd" d="M11 22C17.0751 22 22 17.0751 22 11C22 4.92487 17.0751 0 11 0C4.92487 0 0 4.92487 0 11C0 17.0751 4.92487 22 11 22ZM12.8139 13.9455L16.9824 9.63057C17.2727 9.33004 17.2724 8.82356 16.9824 8.52329L12.8139 4.20829C12.375 3.7539 11.6421 4.09006 11.6421 4.76193V7.04702C7.40418 7.07278 4 7.97911 4 12.5463C4 14.3597 5.02045 16.1562 6.14844 17.0954C6.50044 17.3885 7.00207 17.0207 6.8723 16.5456C5.69151 12.2226 7.45704 11.1392 11.6421 11.1084V13.3918C11.6421 14.0631 12.3745 14.4003 12.8139 13.9455Z" fill="url(#paint0_linear_205_148)"/>
<defs>
<linearGradient id="paint0_linear_205_148" x1="21.5767" y1="0.21165" x2="0" y2="0.21165" gradientUnits="userSpaceOnUse">
<stop stop-color="#F5F4FF"/>
<stop offset="1" stop-color="#D2E7FF"/>
</linearGradient>
</defs>
</svg>
